<?xml version="1.0" encoding="UTF-8"?>
<svg version="1.1" xmlns="http://www.w3.org/2000/svg" width="2000" height="996">
<path d="M0 0 C95.88774648 -0.09935762 95.88774648 -0.09935762 143.33450317 -0.12702942 C144.39699514 -0.12765068 144.39699514 -0.12765068 145.48095158 -0.12828448 C160.87875002 -0.13726542 176.27654876 -0.14557565 191.67434793 -0.15319599 C199.22658358 -0.15693765 206.77881915 -0.16082736 214.33105469 -0.16479492 C215.08255051 -0.1651872 215.83404634 -0.16557948 216.60831476 -0.16598364 C240.92000551 -0.1787435 265.23167519 -0.20125926 289.54335321 -0.22889166 C314.54888106 -0.25726074 339.55439728 -0.27567281 364.55994096 -0.28174497 C368.10038674 -0.2826093 371.64083249 -0.28358621 375.18127823 -0.28463173 C375.87801622 -0.284834 376.57475422 -0.28503627 377.29260548 -0.28524467 C388.46036253 -0.28877522 399.62808335 -0.30264966 410.79582568 -0.3204961 C422.05212599 -0.33825954 433.30839153 -0.34463768 444.56470875 -0.34050413 C450.65187215 -0.33859293 456.7389302 -0.34140999 462.8260746 -0.35761642 C509.7627104 -0.47645043 509.7627104 -0.47645043 531 3 C532.43060027 3.21792484 533.86138152 3.43466684 535.29238701 3.64991474 C538.46030682 4.1428601 541.60246863 4.70390687 544.75 5.3125 C545.86157471 5.52414795 546.97314941 5.7357959 548.1184082 5.95385742 C558.91413912 8.07443365 569.4808638 10.7858195 580 14 C581.43956055 14.43868408 581.43956055 14.43868408 582.90820312 14.88623047 C603.75472067 21.33336073 623.71431489 29.80462785 643 40 C643.68803711 40.3599707 644.37607422 40.71994141 645.08496094 41.09082031 C680.11475264 59.53339512 714.06023051 85.45879856 739.94140625 115.60546875 C741.49581332 117.41353618 743.06954755 119.20501308 744.65234375 120.98828125 C752.77344196 130.19681996 759.9875007 139.9287847 767 150 C767.44585449 150.63518555 767.89170898 151.27037109 768.35107422 151.92480469 C785.39006305 176.30739463 798.86638239 203.07603527 809 231 C809.31420898 231.85883789 809.62841797 232.71767578 809.95214844 233.60253906 C819.26048877 259.34203726 824.7360396 285.88149724 828 313 C828.08566253 313.68953162 828.17132505 314.37906324 828.25958341 315.08948976 C829.28719684 324.59615743 829.13575408 334.11096477 829.12025452 343.65934753 C829.12069099 345.66111986 829.12156729 347.66289213 829.12284368 349.66466409 C829.12507371 355.14677873 829.1210878 360.62887374 829.11606562 366.11098588 C829.11173986 372.0297299 829.11320906 377.94847286 829.1139679 383.86721802 C829.11452588 394.78269423 829.11064419 405.69816332 829.10462701 416.61363774 C829.0991189 426.6916117 829.09589548 436.76958356 829.09487724 446.84755898 C829.0948085 447.51640833 829.09473976 448.18525769 829.09466894 448.87437521 C829.09433059 452.27131836 829.09402922 455.66826151 829.09374207 459.06520466 C829.09164335 483.10670392 829.08491074 507.14819987 829.07543945 531.18969727 C829.06625061 554.54125959 829.05916915 577.892821 829.05493164 601.24438477 C829.05480011 601.96456698 829.05466859 602.6847492 829.05453308 603.42675512 C829.05321452 610.65932146 829.05193871 617.89188781 829.05069422 625.12445416 C829.04815821 639.85716484 829.04533696 654.58987546 829.04234314 669.32258606 C829.04220585 669.99992702 829.04206856 670.67726798 829.04192711 671.37513442 C829.03273117 716.58342461 829.01624462 761.79171168 829 807 C764.32 807 699.64 807 633 807 C633 868.05 633 929.1 633 992 C539.16054907 992.09935762 539.16054907 992.09935762 492.69497681 992.12702942 C491.65445925 992.12765068 491.65445925 992.12765068 490.59292114 992.12828448 C475.51252647 992.13726603 460.4321315 992.14557617 445.35173609 992.15319599 C437.95486827 992.15693756 430.55800052 992.16082728 423.16113281 992.16479492 C422.42510845 992.1651872 421.68908409 992.16557948 420.93075596 992.16598364 C397.13204217 992.17873688 373.33334993 992.20124761 349.53464916 992.22889166 C325.0507942 992.2572795 300.56695115 992.27567711 276.08308001 992.28174497 C272.6141902 992.28260926 269.14530043 992.28358617 265.67641068 992.28463173 C264.99377388 992.284834 264.31113708 992.28503627 263.60781432 992.28524467 C252.67888412 992.28877123 241.74999103 992.30263467 230.82107589 992.3204961 C219.79771002 992.33828649 208.77437509 992.34463159 197.75099467 992.34050413 C191.79295177 992.3385966 185.83501656 992.34136688 179.87699318 992.35761642 C150.45980257 992.43387646 121.32521769 992.27602799 92.375 986.3125 C90.47282715 985.93013184 90.47282715 985.93013184 88.53222656 985.54003906 C28.01641676 973.10261969 -29.43385061 944.73837493 -75.43505859 903.40185547 C-76.79541251 902.18326698 -78.17175093 900.98256849 -79.55078125 899.78515625 C-85.14429375 894.88730749 -90.42045341 889.68084657 -95.6875 884.4375 C-96.40083496 883.72883789 -97.11416992 883.02017578 -97.84912109 882.29003906 C-148.41080262 831.57553217 -180.03186375 763.85622537 -192.25 693.8125 C-192.40130371 692.96059082 -192.55260742 692.10868164 -192.70849609 691.23095703 C-195.57039256 673.68769337 -196.30028216 655.94364991 -196.24050903 638.2013092 C-196.24138427 636.2221782 -196.24314107 634.24304742 -196.24568737 632.26391786 C-196.25010242 626.90010471 -196.24223906 621.53637334 -196.23213124 616.17257059 C-196.22341346 610.36037816 -196.22642273 604.54818956 -196.22793579 598.73599243 C-196.22897943 588.69069915 -196.22275769 578.64543204 -196.21146011 568.60014534 C-196.19513687 554.07673488 -196.18998349 539.55333438 -196.18748413 525.0299161 C-196.18329537 501.46093633 -196.16985454 477.89197017 -196.15087891 454.32299805 C-196.13247816 431.44148836 -196.1183266 408.55998241 -196.10986328 385.6784668 C-196.10960023 384.97181534 -196.10933718 384.26516388 -196.10906615 383.53709875 C-196.10642887 376.43991507 -196.10387728 369.34273136 -196.10138843 362.24554762 C-196.09631748 347.79076832 -196.09067498 333.33598927 -196.08468628 318.88121033 C-196.0844117 318.21676076 -196.08413712 317.55231119 -196.08385422 316.86772678 C-196.06548649 272.57847763 -196.03250954 228.28924117 -196 184 C-131.32 184 -66.64 184 0 184 C0 123.28 0 62.56 0 0 Z M2 186 C1.97711833 245.46723705 1.95949196 304.93447402 1.94893467 364.40171453 C1.94768734 371.42007206 1.94639078 378.43842959 1.94506836 385.45678711 C1.9449376 386.15519666 1.94480684 386.85360621 1.94467212 387.57317968 C1.94041106 410.20911981 1.93289996 432.84505745 1.92370278 455.48099607 C1.91400088 479.40259083 1.90800372 503.32418383 1.90591151 527.24578053 C1.90453841 541.57632952 1.90019932 555.90687134 1.89208353 570.23741812 C1.88680347 580.06026285 1.88519859 589.88310386 1.88649862 599.7059499 C1.88714002 605.37579082 1.88614677 611.04561921 1.88079453 616.71545792 C1.87593012 621.90637179 1.87568141 627.09726469 1.87910111 632.28817952 C1.8795238 634.1658512 1.87825375 636.04352419 1.87511682 637.92119329 C1.87109788 640.47536778 1.87327077 643.02946674 1.87695217 645.5836401 C1.87432516 646.31083064 1.87169814 647.03802119 1.86899152 647.78724781 C1.88565593 652.91171703 2.34867294 657.91857249 3 663 C8.11397189 658.81584118 12.77620056 654.30491313 17.38378906 649.57910156 C19.97547507 646.94222183 22.61937501 644.44774415 25.44165039 642.05834961 C30.67212839 637.49993941 35.53254104 632.57991334 40.41670227 627.65846252 C42.13094586 625.93127324 43.84845302 624.2073868 45.56677246 622.48425293 C49.21402441 618.82566029 52.85731315 615.16313719 56.5 611.5 C60.7264063 607.24986631 64.95449022 603.00142938 69.18684387 598.75721741 C70.86603635 597.0716171 72.54215076 595.38299859 74.21813965 593.69421387 C78.9965022 588.89318297 83.81257621 584.21491492 88.9642334 579.81091309 C92.97354594 576.24443521 96.7137022 572.3935071 100.49072266 568.58444214 C102.0369274 567.02526273 103.58641896 565.46941379 105.13671875 563.91430664 C108.42732983 560.61236864 111.71396962 557.30649584 115 554 C118.81336505 550.16288524 122.62842149 546.32748325 126.44775391 542.49630737 C127.96076052 540.97690534 129.4706797 539.45448297 130.98046875 537.93188477 C135.49790816 533.39068544 140.07550173 529.00465324 144.93920898 524.8359375 C148.89020438 521.31603638 152.58122896 517.52625198 156.30552673 513.76963806 C157.81812332 512.24406023 159.33401202 510.72181914 160.85070801 509.20031738 C164.06999112 505.96971047 167.28530112 502.73516777 170.5 499.5 C174.2307565 495.74548873 177.96320751 491.99269387 181.69993591 488.24412537 C183.17970556 486.75796311 184.65638565 485.26878004 186.13293457 483.77941895 C189.96433345 479.9341816 193.77591553 476.12296227 197.90429688 472.59570312 C203.07011545 468.16510934 207.81104122 463.29998288 212.60189819 458.4732666 C214.34974922 456.712475 216.10085972 454.95498136 217.8527832 453.19824219 C221.57136351 449.46831875 225.28598204 445.73446563 229 442 C233.30901429 437.66726227 237.61970377 433.33621847 241.93466187 429.00939941 C243.6470917 427.29055956 245.35644512 425.56870188 247.06567383 423.84667969 C251.90170961 418.98814404 256.77043235 414.24538417 261.98535156 409.78979492 C265.92475495 406.29006562 269.59683728 402.51050823 273.30552673 398.76963806 C274.81812332 397.24406023 276.33401202 395.72181914 277.85070801 394.20031738 C281.06999112 390.96971047 284.28530112 387.73516777 287.5 384.5 C291.2307565 380.74548873 294.96320751 376.99269387 298.69993591 373.24412537 C300.17970556 371.75796311 301.65638565 370.26878004 303.13293457 368.77941895 C306.99154591 364.90687085 310.83425751 361.07243913 314.98632812 357.51367188 C319.72706873 353.44816851 324.0963995 349.01604704 328.49072266 344.58444214 C330.0369274 343.02526273 331.58641896 341.46941379 333.13671875 339.91430664 C336.42732983 336.61236864 339.71396962 333.30649584 343 330 C346.81336505 326.16288524 350.62842149 322.32748325 354.44775391 318.49630737 C355.96076052 316.97690534 357.4706797 315.45448297 358.98046875 313.93188477 C362.86096811 310.0309702 366.73231961 306.15829833 370.91796875 302.58203125 C376.0799796 298.15698344 380.81563095 293.2953588 385.60189819 288.4732666 C387.34974922 286.712475 389.10085972 284.95498136 390.8527832 283.19824219 C394.57136351 279.46831875 398.28598204 275.73446563 402 272 C406.30901429 267.66726227 410.61970377 263.33621847 414.93466187 259.00939941 C416.6470917 257.29055956 418.35644512 255.56870188 420.06567383 253.84667969 C424.89898674 248.9908535 429.7644588 244.24959282 434.97644043 239.79647827 C439.48427456 235.79450759 443.67245092 231.44816853 447.921875 227.17578125 C448.95438934 226.14139633 449.98712877 225.10723603 451.02008057 224.07328796 C453.71681051 221.37277302 456.41052481 218.66927012 459.10357666 215.96508789 C461.84456763 213.21383409 464.58841654 210.46543379 467.33203125 207.71679688 C472.15311859 202.88618582 476.97172822 198.05311754 481.78851318 193.21821594 C483.85698769 191.14344747 485.92777556 189.07102246 488 187 C486.25453113 185.25453113 483.97860007 185.87648664 481.65246841 185.86899152 C480.87698789 185.87161854 480.10150736 185.87424555 479.30252743 185.87695217 C478.48251235 185.87579833 477.66249726 185.87464448 476.81763324 185.87345567 C474.03415906 185.8707815 471.25074122 185.87531771 468.4672699 185.87974548 C466.46587853 185.87930994 464.46448721 185.87843536 462.4630962 185.87715632 C456.93558505 185.87490794 451.40809307 185.87893729 445.88058436 185.88393438 C439.93030777 185.88823382 433.98003235 185.88679282 428.02975464 185.8860321 C417.71124972 185.88550655 407.39275065 185.88862193 397.07424736 185.89426994 C386.24844775 185.90018048 375.42265065 185.90403458 364.59684944 185.90512276 C363.92453999 185.9051915 363.25223054 185.90526024 362.55954808 185.90533106 C359.14543526 185.90566938 355.73132244 185.90597077 352.31720961 185.90625793 C328.11487305 185.90836014 303.91253978 185.91510249 279.71020508 185.92456055 C256.19327817 185.93374017 232.67635217 185.94082614 209.15942383 185.94506836 C208.07269544 185.94526565 208.07269544 185.94526565 206.96401295 185.94546692 C199.68864361 185.94678541 192.41327427 185.94806123 185.13790492 185.94930578 C170.3162255 185.95184221 155.49454615 185.95466347 140.67286682 185.95765686 C139.65057956 185.9578628 139.65057956 185.9578628 138.60764004 185.95807289 C93.07175864 185.96727854 47.53587914 185.98314506 2 186 Z M627.90209961 342.00024414 C626.54097046 343.37877563 626.54097046 343.37877563 625.15234375 344.78515625 C624.4171627 345.52601723 624.4171627 345.52601723 623.66712952 346.28184509 C621.56604592 348.39924827 619.47070382 350.52229679 617.37524414 352.64526367 C615.84480331 354.19408237 614.3111442 355.73966556 612.77734375 357.28515625 C611.86202881 358.21207275 610.94671387 359.13898926 610.00366211 360.09399414 C607.85457333 362.22021689 605.62209031 364.2069842 603.32641602 366.17358398 C598.49637574 370.36117229 594.00765211 374.87901857 589.50927734 379.41555786 C587.9630726 380.97473727 586.41358104 382.53058621 584.86328125 384.08569336 C581.57267017 387.38763136 578.28603038 390.69350416 575 394 C571.18663495 397.83711476 567.37157851 401.67251675 563.55224609 405.50369263 C562.03923948 407.02309466 560.5293203 408.54551703 559.01953125 410.06811523 C554.50408814 414.60733524 549.92904559 418.99267798 545.06747437 423.15960693 C540.56156025 427.17061342 536.36593768 431.51335457 532.11328125 435.7890625 C531.08316267 436.82105193 530.05281882 437.85281653 529.02226257 438.8843689 C526.33084798 441.57956893 523.6424482 444.27775604 520.95471191 446.97662354 C518.22358295 449.71800464 515.4896069 452.45654309 512.75585938 455.1953125 C507.94555895 460.01513458 503.13773353 464.83741112 498.33174133 469.66152954 C497.56226669 470.43322479 496.79279205 471.20492004 496 472 C495.17234634 472.83821289 494.34469269 473.67642578 493.49195862 474.54003906 C491.18063868 476.82168079 488.81070205 478.98477931 486.37353516 481.13037109 C481.23377166 485.73179281 476.33889163 490.54336059 471.48301315 495.44182205 C469.97869348 496.95919477 468.47101853 498.47316708 466.96255493 499.98641968 C463.76383046 503.19642759 460.56910793 506.41039924 457.375 509.625 C453.65996261 513.36381498 449.94320672 517.10088967 446.22218704 520.83375168 C444.75127301 522.31105187 443.28345 523.79137359 441.81576538 525.2718811 C437.97183072 529.12979821 434.14212529 532.94725973 430.0065918 536.4934082 C425.32245499 540.51093868 421.00670481 544.88057579 416.663908 549.2609272 C415.14738215 550.79042766 413.62756981 552.31659716 412.10694885 553.84202576 C408.88094672 557.07935152 405.65892288 560.32061829 402.4375 563.5625 C398.69594062 567.32779315 394.95269622 571.09137978 391.20518684 574.85075188 C389.71928504 576.34306105 388.23646447 577.83838381 386.75376892 579.33387756 C382.88583584 583.21577992 379.05119919 587.03739097 374.83227539 590.53881836 C373.89762451 591.3510083 372.96297363 592.16319824 372 593 C372 593.66 372 594.32 372 595 C371.44330627 595.23104935 370.88661255 595.46209869 370.31304932 595.70014954 C367.3761674 597.35057147 365.36452654 599.40401819 362.99121094 601.79760742 C362.50604507 602.28408752 362.02087921 602.77056763 361.52101135 603.27178955 C359.92081587 604.87846567 358.32772062 606.49200191 356.734375 608.10546875 C355.61633715 609.22978361 354.49777817 610.35358048 353.37872314 611.47688293 C350.4315428 614.4373623 347.48997063 617.40334636 344.54998779 620.37097168 C339.86039613 625.10365714 335.1642186 629.82978081 330.4645462 634.55245399 C328.83374434 636.19337074 327.20646517 637.8377195 325.57952881 639.48246765 C320.87019074 644.22975146 316.11831949 648.84534582 311.03277588 653.1933136 C307.08785152 656.69947543 303.40909084 660.48351221 299.69447327 664.23036194 C298.18187668 665.75593977 296.66598798 667.27818086 295.14929199 668.79968262 C291.93000888 672.03028953 288.71469888 675.26483223 285.5 678.5 C281.7692435 682.25451127 278.03679249 686.00730613 274.30006409 689.75587463 C272.82029444 691.24203689 271.34361435 692.73121996 269.86706543 694.22058105 C266.00845409 698.09312915 262.16574249 701.92756087 258.01367188 705.48632812 C253.27293127 709.55183149 248.9036005 713.98395296 244.50927734 718.41555786 C242.9630726 719.97473727 241.41358104 721.53058621 239.86328125 723.08569336 C236.57267017 726.38763136 233.28603038 729.69350416 230 733 C226.18663495 736.83711476 222.37157851 740.67251675 218.55224609 744.50369263 C217.03923948 746.02309466 215.5293203 747.54551703 214.01953125 749.06811523 C209.47698683 753.63460093 204.87598166 758.05282517 199.98461914 762.24468994 C195.97909082 765.78740703 192.24402982 769.61399084 188.46875 773.3984375 C187.59222778 774.27400299 186.71570557 775.14956848 185.81262207 776.05166626 C183.97606645 777.8875455 182.1407565 779.72467164 180.30664062 781.56298828 C178.42300025 783.4502334 176.53808835 785.33606586 174.65039062 787.21923828 C171.92050668 789.94298235 169.19406447 792.67012213 166.46875 795.3984375 C165.61889526 796.24626801 164.76904053 797.09409851 163.89343262 797.96762085 C163.11842407 798.74578156 162.34341553 799.52394226 161.54492188 800.32568359 C160.85845581 801.01294525 160.17198975 801.70020691 159.46472168 802.40829468 C157.88714252 803.76212751 157.88714252 803.76212751 158 805 C314.42 805 470.84 805 632 805 C632.020625 729.203125 632.04125 653.40625 632.0625 575.3125 C632.07615601 539.35792847 632.07615601 539.35792847 632.09008789 502.67700195 C632.09343147 481.26827247 632.09343147 481.26827247 632.09544373 459.85954285 C632.09637874 450.29309343 632.10005737 440.7266498 632.10557556 431.16020203 C632.11192469 420.13700921 632.11483975 409.11382198 632.11344495 398.09062732 C632.11284049 392.44745585 632.11382294 386.80429688 632.11921513 381.16112769 C632.12405628 376.06386496 632.12433982 370.96662365 632.12090111 365.86935997 C632.12047507 364.02135945 632.12176037 362.17335763 632.12488258 360.3253597 C632.12887387 357.81662328 632.12674582 355.30796475 632.12304783 352.79922962 C632.12567485 352.07433417 632.12830188 351.34943873 632.13100851 350.60257675 C632.11874112 346.94209037 631.87081842 343.55988248 631 340 C629.63751714 339.88498984 629.63751714 339.88498984 627.90209961 342.00024414 Z " fill="#000000" transform="translate(1171,0)"/>
<path d="M0 0 C35.29633344 -0.16021535 70.59259331 -0.28356408 105.88921383 -0.35745731 C110.05610734 -0.36621227 114.22300014 -0.37527253 118.38989258 -0.38452148 C119.21944731 -0.38635766 120.04900205 -0.38819383 120.9036948 -0.39008565 C134.33651917 -0.42054652 147.76913387 -0.47573934 161.20183385 -0.54006957 C174.98461582 -0.60552596 188.76728797 -0.64441052 202.550219 -0.65861946 C211.05544343 -0.66822536 219.56007527 -0.69856551 228.06511729 -0.75541527 C233.8970415 -0.79241198 239.72865927 -0.803602 245.56069232 -0.79450964 C248.92616442 -0.79002462 252.28976612 -0.80072761 255.65519714 -0.83443832 C259.30571498 -0.86921586 262.95368785 -0.86091396 266.60426331 -0.84178162 C268.19620391 -0.87236645 268.19620391 -0.87236645 269.82030493 -0.90356916 C275.16462807 -0.82774301 278.20740366 -0.41825562 282.0935812 3.4224844 C283.08820163 4.59354564 284.06120361 5.78372882 285 7 C285.62648438 7.68707031 286.25296875 8.37414062 286.8984375 9.08203125 C287.38570313 9.65308594 287.87296875 10.22414062 288.375 10.8125 C291.04676542 13.90959131 293.75780378 16.964993 296.5 20 C299.17048344 22.95869751 301.82298058 25.92926472 304.4375 28.9375 C308.09057956 33.13303221 311.84505549 37.23373553 315.59375 41.34375 C318.15148771 44.16722669 320.65769969 47.03056002 323.15625 49.90625 C325.40876457 52.46419027 327.70317092 54.9817898 330 57.5 C333.43264761 61.26350521 336.8155501 65.06129351 340.15625 68.90625 C342.40876457 71.46419027 344.70317092 73.9817898 347 76.5 C350.45575413 80.28934126 353.8652289 84.11083698 357.23046875 87.98046875 C360.77576954 92.02665089 364.39458999 96.00743187 368 100 C372.77033937 105.28259058 377.51894407 110.57934135 382.1953125 115.9453125 C385.75638173 119.99969003 389.3834804 123.9951293 393 128 C397.77033937 133.28259058 402.51894407 138.57934135 407.1953125 143.9453125 C410.75638173 147.99969003 414.3834804 151.9951293 418 156 C426.56860207 165.48872041 426.56860207 165.48872041 430.4375 169.9375 C434.09057956 174.13303221 437.84505549 178.23373553 441.59375 182.34375 C444.15148771 185.16722669 446.65769969 188.03056002 449.15625 190.90625 C451.40876457 193.46419027 453.70317092 195.9817898 456 198.5 C459.45575413 202.28934126 462.8652289 206.11083698 466.23046875 209.98046875 C469.77576954 214.02665089 473.39458999 218.00743187 477 222 C481.77033937 227.28259058 486.51894407 232.57934135 491.1953125 237.9453125 C494.75638173 241.99969003 498.3834804 245.9951293 502 250 C510.56860207 259.48872041 510.56860207 259.48872041 514.4375 263.9375 C517.24822525 267.16559512 520.115799 270.33738443 523 273.5 C526.45575413 277.28934126 529.8652289 281.11083698 533.23046875 284.98046875 C536.77576954 289.02665089 540.39458999 293.00743187 544 297 C552.56860207 306.48872041 552.56860207 306.48872041 556.4375 310.9375 C559.24822525 314.16559512 562.115799 317.33738443 565 320.5 C568.45575413 324.28934126 571.8652289 328.11083698 575.23046875 331.98046875 C578.77576954 336.02665089 582.39458999 340.00743187 586 344 C594.56860207 353.48872041 594.56860207 353.48872041 598.4375 357.9375 C602.09057956 362.13303221 605.84505549 366.23373553 609.59375 370.34375 C612.15148771 373.16722669 614.65769969 376.03056002 617.15625 378.90625 C619.40876457 381.46419027 621.70317092 383.9817898 624 386.5 C627.45328153 390.28662998 630.86099051 394.1047632 634.22265625 397.97265625 C636.29359487 400.33489173 638.39512848 402.66795853 640.5 405 C643.17048344 407.95869751 645.82298058 410.92926472 648.4375 413.9375 C651.24822525 417.16559512 654.115799 420.33738443 657 423.5 C660.44833505 427.28120601 663.85254128 431.09259506 667.20703125 434.95703125 C670.09112183 438.24326082 673.04021379 441.47072424 675.984375 444.703125 C677.75433775 446.7200593 679.3899425 448.85325667 681 451 C681.495 227.755 681.495 227.755 682 0 C750.64 0 819.28 0 890 0 C890.06039235 82.58947415 890.06039235 82.58947415 890.07695007 108.14526367 C890.07783807 109.51240691 890.07783807 109.51240691 890.07874402 110.90716921 C890.09862106 141.59216405 890.11437235 172.27715956 890.12702942 202.9621582 C890.12744359 203.96368242 890.12785776 204.96520664 890.12828448 205.99708007 C890.1372635 227.7636302 890.145574 249.53018053 890.15319599 271.29673117 C890.15693795 281.97125833 890.16082762 292.64578543 890.16479492 303.3203125 C890.1651872 304.38254835 890.16557948 305.44478421 890.16598364 306.53920902 C890.17876449 340.96066877 890.20129604 375.38211374 890.22889166 409.80356453 C890.25720149 445.18019658 890.27565913 480.55682045 890.28174497 515.93346364 C890.28260942 520.93176753 890.28358633 525.93007139 890.28463173 530.92837524 C890.284834 531.91209962 890.28503627 532.89582399 890.28524467 533.9093582 C890.28878789 549.7356894 890.30269687 565.56199528 890.3204961 581.38831617 C890.33817469 597.30450575 890.34489971 613.22067026 890.34050413 629.13686931 C890.33822485 638.58945797 890.34428374 648.04195477 890.36239263 657.49452681 C890.37367364 663.8157734 890.37396899 670.1369601 890.36549544 676.45821087 C890.3609829 680.05554919 890.36109106 683.65271427 890.37464955 687.25003374 C890.43703617 704.8297077 890.18355789 721.23243461 883.6875 737.8125 C883.38191162 738.61236328 883.07632324 739.41222656 882.76147461 740.23632812 C871.78242206 768.32903223 849.4987387 790.54163106 822.125 802.8125 C797.18544036 813.52081876 767.0309619 816.39812244 741 808 C739.98558838 807.68651611 739.98558838 807.68651611 738.95068359 807.36669922 C724.22637693 802.71636816 711.73555125 794.96454988 700 785 C699.14664063 784.33355469 698.29328125 783.66710937 697.4140625 782.98046875 C695.3430232 781.28141224 693.70470351 779.67249715 692 777.625 C688.60403837 773.64815019 685.06997197 769.8197335 681.5 766 C677.50777105 761.72104569 673.56207863 757.41933181 669.73828125 752.98828125 C667.52743511 750.45947072 665.26403557 747.98127436 663 745.5 C659.56735239 741.73649479 656.1844499 737.93870649 652.84375 734.09375 C650.59123543 731.53580973 648.29682908 729.0182102 646 726.5 C642.54424587 722.71065874 639.1347711 718.88916302 635.76953125 715.01953125 C632.22421912 710.97333617 628.60477095 706.99316378 625 703 C622.75203023 700.50312008 620.50491993 698.00546849 618.2578125 695.5078125 C616.73291756 693.81407106 615.20684598 692.12138831 613.6796875 690.4296875 C609.68756274 686.0045187 605.72674108 681.55662865 601.8125 677.0625 C598.9673071 673.8248667 596.07146164 670.6331371 593.18359375 667.43359375 C591.29151315 665.32488854 589.42094242 663.20080199 587.5625 661.0625 C584.75177475 657.83440488 581.884201 654.66261557 579 651.5 C575.54424587 647.71065874 572.1347711 643.88916302 568.76953125 640.01953125 C565.22423046 635.97334911 561.60541001 631.99256813 558 628 C549.43139793 618.51127959 549.43139793 618.51127959 545.5625 614.0625 C542.75177475 610.83440488 539.884201 607.66261557 537 604.5 C533.54424587 600.71065874 530.1347711 596.88916302 526.76953125 593.01953125 C523.22423046 588.97334911 519.60541001 584.99256813 516 581 C507.43139793 571.51127959 507.43139793 571.51127959 503.5625 567.0625 C499.90942044 562.86696779 496.15494451 558.76626447 492.40625 554.65625 C489.84851229 551.83277331 487.34230031 548.96943998 484.84375 546.09375 C482.59123543 543.53580973 480.29682908 541.0182102 478 538.5 C474.54424587 534.71065874 471.1347711 530.88916302 467.76953125 527.01953125 C464.22423046 522.97334911 460.60541001 518.99256813 457 515 C452.22966063 509.71740942 447.48105593 504.42065865 442.8046875 499.0546875 C439.24361827 495.00030997 435.6165196 491.0048707 432 487 C423.43139793 477.51127959 423.43139793 477.51127959 419.5625 473.0625 C416.75177475 469.83440488 413.884201 466.66261557 411 463.5 C407.54424587 459.71065874 404.1347711 455.88916302 400.76953125 452.01953125 C397.22423046 447.97334911 393.60541001 443.99256813 390 440 C381.43139793 430.51127959 381.43139793 430.51127959 377.5625 426.0625 C374.75177475 422.83440488 371.884201 419.66261557 369 416.5 C365.54424587 412.71065874 362.1347711 408.88916302 358.76953125 405.01953125 C355.22423046 400.97334911 351.60541001 396.99256813 348 393 C343.22966063 387.71740942 338.48105593 382.42065865 333.8046875 377.0546875 C330.24361827 373.00030997 326.6165196 369.0048707 323 365 C314.43139793 355.51127959 314.43139793 355.51127959 310.5625 351.0625 C307.75177475 347.83440488 304.884201 344.66261557 302 341.5 C298.54424587 337.71065874 295.1347711 333.88916302 291.76953125 330.01953125 C288.22423046 325.97334911 284.60541001 321.99256813 281 318 C272.43139793 308.51127959 272.43139793 308.51127959 268.5625 304.0625 C264.90942044 299.86696779 261.15494451 295.76626447 257.40625 291.65625 C254.84851229 288.83277331 252.34230031 285.96943998 249.84375 283.09375 C247.59123543 280.53580973 245.29682908 278.0182102 243 275.5 C239.56735239 271.73649479 236.1844499 267.93870649 232.84375 264.09375 C230.59123543 261.53580973 228.29682908 259.0182102 226 256.5 C222.54671847 252.71337002 219.13900949 248.8952368 215.77734375 245.02734375 C213.70640513 242.66510827 211.60487152 240.33204147 209.5 238 C206.82951656 235.04130249 204.17701942 232.07073528 201.5625 229.0625 C198.75177475 225.83440488 195.884201 222.66261557 193 219.5 C189.54424587 215.71065874 186.1347711 211.88916302 182.76953125 208.01953125 C179.22423046 203.97334911 175.60541001 199.99256813 172 196 C163.43139793 186.51127959 163.43139793 186.51127959 159.5625 182.0625 C156.75177475 178.83440488 153.884201 175.66261557 151 172.5 C147.54424587 168.71065874 144.1347711 164.88916302 140.76953125 161.01953125 C137.22423046 156.97334911 133.60541001 152.99256813 130 149 C121.43139793 139.51127959 121.43139793 139.51127959 117.5625 135.0625 C113.90942044 130.86696779 110.15494451 126.76626447 106.40625 122.65625 C103.84851229 119.83277331 101.34230031 116.96943998 98.84375 114.09375 C96.59123543 111.53580973 94.29682908 109.0182102 92 106.5 C88.54424587 102.71065874 85.1347711 98.88916302 81.76953125 95.01953125 C78.22423046 90.97334911 74.60541001 86.99256813 71 83 C66.23213025 77.72014424 61.48487782 72.42708194 56.8125 67.0625 C53.9673071 63.8248667 51.07146164 60.6331371 48.18359375 57.43359375 C46.29151315 55.32488854 44.42094242 53.20080199 42.5625 51.0625 C38.90942044 46.86696779 35.15494451 42.76626447 31.40625 38.65625 C28.84851229 35.83277331 26.34230031 32.96943998 23.84375 30.09375 C21.59123543 27.53580973 19.29682908 25.0182102 17 22.5 C12.94207294 18.04797988 8.93825011 13.55797475 5 9 C4.49210938 8.4328125 3.98421875 7.865625 3.4609375 7.28125 C0 3.33694134 0 3.33694134 0 0 Z " fill="#000000" transform="translate(0,184)"/>
</svg>
